<svg id="Layer_1" data-name="Layer 1" xmlns="http://www.w3.org/2000/svg" viewBox="0 0 1522.44 471.25"><defs><style>.cls-1{fill:#0052d2;}.cls-2{fill:#fccd00;}</style></defs><path class="cls-1" d="M171.12,415.44q20-6.6,37.53-12.21t37-10.64q19.45-5,37.28-8a168.16,168.16,0,0,1,28-2.31q23.91,0,31.34,1.32a86.3,86.3,0,0,1,21.19,6.93,62.93,62.93,0,0,1,17.82,12.78,65.51,65.51,0,0,1,12.78,18.89,22.88,22.88,0,0,1,2,9.4q0,18.48-20.21,45.53a416.64,416.64,0,0,1-40.57,47.17q-20.38,20.13-30.44,28.87l29.69,104.08-43.21,31.17L215.66,472.18c-.22,0-1.27,1.05-3.14,3.13s-4.31,4.81-7.34,8.17-4.92,5.42-5.69,6.18q-.5,0-3.21-7.09T189,462.86q-4.54-12.62-10.23-28T171.12,415.44Zm106.72,45.85L291.37,510q10.23-10.4,25.4-28.37t15.17-26.06q0-3.13-2.63-3.63a67.56,67.56,0,0,0-14.68-1.65Q292.85,450.24,277.84,461.29Z" transform="translate(-171.12 -264.35)"/><path class="cls-1" d="M600.15,430.28q39.09,29.87,39.09,79.67a137.08,137.08,0,0,1-4.87,35.38,168,168,0,0,1-13.61,34.89,180,180,0,0,1-19.29,29.69A285.18,285.18,0,0,1,567.24,646a185.8,185.8,0,0,1-34.06,23.84A150.85,150.85,0,0,1,500,683.14a125.2,125.2,0,0,1-31.34,4.13q-35.62,0-64.49-19.14-19.47-13.18-32.25-41.23a143.46,143.46,0,0,1-12.78-60.21q0-51.62,32.82-89.07a325,325,0,0,1,40.58-39.26,190.58,190.58,0,0,1,44-27,116.51,116.51,0,0,1,46.52-9.82Q562.21,401.58,600.15,430.28Zm-32.5,42.56q-3.3,18.46-13.36,30.51t-20.78,12a15.75,15.75,0,0,1-11.71-5.11,19.76,19.76,0,0,1-4.37-7.92,32.51,32.51,0,0,1-1.74-10.22,37.68,37.68,0,0,1,6-19.88q6-9.81,19.22-17.07-15.84,0-27,7.34a44.71,44.71,0,0,0-16.41,18.72,55.45,55.45,0,0,0-5.28,23.59q0,19.14,11.22,28,13.51,10.89,27,10.89,16.65,0,28-14.85T570,492.14A78,78,0,0,0,567.65,472.84Z" transform="translate(-171.12 -264.35)"/><path class="cls-1" d="M610.21,401.91,694,366.78v54.1l44.54-47.34,56.74,47.34-81,117.44,168.9,129.81,4,66.15-171.54-93.2,4.12,81-78.51,1.49L626.37,437.05l-24.24,5.44Z" transform="translate(-171.12 -264.35)"/><path class="cls-1" d="M895.89,655.93l173,8.08-1.32,71.59L827,723.56,813.59,474.82l-23.1,4.12,4.13-78.35,199.91-29.85,4.12,71.75-113.48,18.8,2.64,51.47,112.16-19,4.13,59.38-113.49,21.6ZM848.72,328.84l87.75-48.49,37.77,58.06L867.52,358.7Z" transform="translate(-171.12 -264.35)"/><path class="cls-1" d="M1204.67,422.2a215.82,215.82,0,0,1,12.95,32.08,213.57,213.57,0,0,1,7.59,33.07,227,227,0,0,1,2.39,32.5,196.52,196.52,0,0,1-7.67,55.09,162.88,162.88,0,0,1-22,47.26,121.12,121.12,0,0,1-34.72,33.89,106.06,106.06,0,0,1-45.12,16l-68.78,12.21L1026.2,472.18q-1.15,0-8.08,8.74t-8.08,8.74q-3.63-2.48-6.35-14t-7.76-36q-5-24.4-7.5-29.69,38.1-12.36,71.75-20t62.68-7.67Q1185.2,382.28,1204.67,422.2Zm-64.82,29.69q-13.69-4.78-21.78-4.78-11.21,0-21.6,7.42l8.24,150.1q27.88-12,37.2-23.83t11.3-19.55q1.65-3.63,3.38-18a269.74,269.74,0,0,0,1.73-32q0-23.08-4.2-39.5T1139.85,451.89Z" transform="translate(-171.12 -264.35)"/><path class="cls-1" d="M1301.16,655.93l173,8.08-1.32,71.59-240.65-12-13.36-248.74-23.1,4.12,4.13-78.35,199.91-29.85,4.13,71.75-113.49,18.8,2.64,51.47,112.16-19,4.13,59.38-113.48,21.6Z" transform="translate(-171.12 -264.35)"/><path class="cls-1" d="M1519.39,622.11l-63.51,109.53-85.11,2.64,117.44-190.51L1389.57,379l92,13.37,45.86,78.51L1572,392.35l90.56-4-95.83,161.15,85.11,169.89-93.36-21.61Z" transform="translate(-171.12 -264.35)"/><path class="cls-2" d="M202.12,399.44q20-6.6,37.53-12.21t37-10.64q19.45-5,37.28-8a168.16,168.16,0,0,1,28-2.31q23.91,0,31.34,1.32a86.3,86.3,0,0,1,21.19,6.93,62.93,62.93,0,0,1,17.82,12.78,65.51,65.51,0,0,1,12.78,18.89,22.88,22.88,0,0,1,2,9.4q0,18.48-20.21,45.53a416.64,416.64,0,0,1-40.57,47.17q-20.38,20.13-30.44,28.87l29.69,104.08-43.21,31.17L246.66,456.18c-.22,0-1.27,1.05-3.14,3.13s-4.31,4.81-7.34,8.17-4.92,5.42-5.69,6.18q-.5,0-3.21-7.09T220,446.86q-4.54-12.62-10.23-28T202.12,399.44Zm106.72,45.85L322.37,494q10.23-10.4,25.4-28.37t15.17-26.06q0-3.13-2.63-3.63a67.56,67.56,0,0,0-14.68-1.65Q323.85,434.24,308.84,445.29Z" transform="translate(-171.12 -264.35)"/><path class="cls-2" d="M631.15,414.28q39.09,29.87,39.09,79.67a137.08,137.08,0,0,1-4.87,35.38,168,168,0,0,1-13.61,34.89,180,180,0,0,1-19.29,29.69A285.18,285.18,0,0,1,598.24,630a185.8,185.8,0,0,1-34.06,23.84A150.85,150.85,0,0,1,531,667.14a125.2,125.2,0,0,1-31.34,4.13q-35.62,0-64.49-19.14-19.47-13.18-32.25-41.23a143.46,143.46,0,0,1-12.78-60.21q0-51.62,32.82-89.07a325,325,0,0,1,40.58-39.26,190.58,190.58,0,0,1,44-27,116.51,116.51,0,0,1,46.52-9.82Q593.21,385.58,631.15,414.28Zm-32.5,42.56q-3.3,18.46-13.36,30.51t-20.78,12a15.75,15.75,0,0,1-11.71-5.11,19.76,19.76,0,0,1-4.37-7.92,32.51,32.51,0,0,1-1.74-10.22,37.68,37.68,0,0,1,6-19.88q6-9.81,19.22-17.07-15.84,0-27,7.34a44.71,44.71,0,0,0-16.41,18.72,55.45,55.45,0,0,0-5.28,23.59q0,19.14,11.22,28,13.51,10.89,27,10.89,16.65,0,28-14.85T601,476.14A78,78,0,0,0,598.65,456.84Z" transform="translate(-171.12 -264.35)"/><path class="cls-2" d="M641.21,385.91,725,350.78v54.1l44.54-47.34,56.74,47.34-81,117.44,168.9,129.81,4,66.15-171.54-93.2,4.12,81-78.51,1.49L657.37,421.05l-24.24,5.44Z" transform="translate(-171.12 -264.35)"/><path class="cls-2" d="M926.89,639.93l173,8.08-1.32,71.59L858,707.56,844.59,458.82l-23.1,4.12,4.13-78.35,199.91-29.85,4.12,71.75-113.48,18.8,2.64,51.47,112.16-19,4.13,59.38-113.49,21.6ZM879.72,312.84l87.75-48.49,37.77,58.06L898.52,342.7Z" transform="translate(-171.12 -264.35)"/><path class="cls-2" d="M1235.67,406.2a215.82,215.82,0,0,1,12.95,32.08,213.57,213.57,0,0,1,7.59,33.07,227,227,0,0,1,2.39,32.5,196.52,196.52,0,0,1-7.67,55.09,162.88,162.88,0,0,1-22,47.26,121.12,121.12,0,0,1-34.72,33.89,106.06,106.06,0,0,1-45.12,16l-68.78,12.21L1057.2,456.18q-1.15,0-8.08,8.74t-8.08,8.74q-3.63-2.48-6.35-14t-7.76-36q-5-24.4-7.5-29.69,38.1-12.36,71.75-20t62.68-7.67Q1216.2,366.28,1235.67,406.2Zm-64.82,29.69q-13.69-4.78-21.78-4.78-11.21,0-21.6,7.42l8.24,150.1q27.88-12,37.2-23.83t11.3-19.55q1.65-3.63,3.38-18a269.74,269.74,0,0,0,1.73-32q0-23.08-4.2-39.5T1170.85,435.89Z" transform="translate(-171.12 -264.35)"/><path class="cls-2" d="M1332.16,639.93l173,8.08-1.32,71.59-240.65-12-13.36-248.74-23.1,4.12,4.13-78.35,199.91-29.85,4.13,71.75-113.49,18.8,2.64,51.47,112.16-19,4.13,59.38-113.48,21.6Z" transform="translate(-171.12 -264.35)"/><path class="cls-2" d="M1550.39,606.11l-63.51,109.53-85.11,2.64,117.44-190.51L1420.57,363l92,13.37,45.86,78.51L1603,376.35l90.56-4-95.83,161.15,85.11,169.89-93.36-21.61Z" transform="translate(-171.12 -264.35)"/></svg>